HIERARCHY
ROOT Hips
{
	OFFSET 53.810501 -50.995316 85.924889
	CHANNELS 6 Xposition Yposition Zposition Xrotation Yrotation Zrotation
	JOINT spine
	{
		OFFSET 0.000000 -0.367607 6.392601
		CHANNELS 3 Xrotation Yrotation Zrotation
		JOINT spine1
		{
			OFFSET 0.000000 0.000000 9.176109
			CHANNELS 3 Xrotation Yrotation Zrotation
			JOINT spine2
			{
				OFFSET 0.000000 -0.000004 8.792381
				CHANNELS 3 Xrotation Yrotation Zrotation
				JOINT Neck
				{
					OFFSET 0.000000 -1.076244 22.573685
					CHANNELS 3 Xrotation Yrotation Zrotation
					JOINT Head
					{
						OFFSET 0.000000 0.000000 6.820114
						CHANNELS 3 Xrotation Yrotation Zrotation
						End Site
						{
							OFFSET 0.000000 5.444267 16.508499
						}
					}
				}
				JOINT RightShoulder
				{
					OFFSET -3.702209 0.515507 9.495087
					CHANNELS 3 Xrotation Yrotation Zrotation
					JOINT RightArm
					{
						OFFSET 0.000000 -0.000004 12.453690
						CHANNELS 3 Xrotation Yrotation Zrotation
						JOINT RightArmRoll
						{
							OFFSET 0.000000 0.000000 6.286865
							CHANNELS 3 Xrotation Yrotation Zrotation
							JOINT RightForeArm
							{
								OFFSET 0.000000 -0.000004 18.311401
								CHANNELS 3 Xrotation Yrotation Zrotation
								JOINT RightForeArmRoll
								{
									OFFSET 0.000000 0.000000 7.054825
									CHANNELS 3 Xrotation Yrotation Zrotation
									JOINT RightHand
									{
										OFFSET 0.000000 -0.000004 14.157501
										CHANNELS 3 Xrotation Yrotation Zrotation
										End Site
										{
											OFFSET 0.000000 0.000000 0.100006
										}
									}
								}
							}
						}
					}
				}
				JOINT LeftShoulder
				{
					OFFSET 3.702209 0.515507 9.495087
					CHANNELS 3 Xrotation Yrotation Zrotation
					JOINT LeftArm
					{
						OFFSET 0.000000 -0.000004 12.453690
						CHANNELS 3 Xrotation Yrotation Zrotation
						JOINT LeftArmRoll
						{
							OFFSET 0.000000 0.000000 6.286865
							CHANNELS 3 Xrotation Yrotation Zrotation
							JOINT LeftForeArm
							{
								OFFSET 0.000000 -0.000004 18.311401
								CHANNELS 3 Xrotation Yrotation Zrotation
								JOINT LeftForeArmRoll
								{
									OFFSET 0.000000 0.000000 7.054825
									CHANNELS 3 Xrotation Yrotation Zrotation
									JOINT LeftHand
									{
										OFFSET 0.000000 -0.000004 14.157501
										CHANNELS 3 Xrotation Yrotation Zrotation
										End Site
										{
											OFFSET 0.000000 0.000000 0.100006
										}
									}
								}
							}
						}
					}
				}
			}
		}
	}
	JOINT RightUpLeg
	{
		OFFSET -5.666161 0.871609 -1.039032
		CHANNELS 3 Xrotation Yrotation Zrotation
		JOINT RightUpLegRoll
		{
			OFFSET 0.000000 0.000000 16.600502
			CHANNELS 3 Xrotation Yrotation Zrotation
			JOINT RightLeg
			{
				OFFSET 0.000000 0.000004 -20.557198
				CHANNELS 3 Xrotation Yrotation Zrotation
				JOINT RightLegRoll
				{
					OFFSET 0.000000 -0.000004 20.624397
					CHANNELS 3 Xrotation Yrotation Zrotation
					JOINT RightFoot
					{
						OFFSET 0.000000 -0.000004 17.166405
						CHANNELS 3 Xrotation Yrotation Zrotation
						JOINT RightToeBase
						{
							OFFSET 0.000000 -0.000004 14.350197
							CHANNELS 3 Xrotation Yrotation Zrotation
							End Site
							{
								OFFSET 0.006081 0.801060 6.949707
							}
						}
					}
				}
			}
		}
	}
	JOINT LeftUpLeg
	{
		OFFSET 5.666161 0.871609 -1.039032
		CHANNELS 3 Xrotation Yrotation Zrotation
		JOINT LeftUpLegRoll
		{
			OFFSET 0.000000 0.000000 16.600601
			CHANNELS 3 Xrotation Yrotation Zrotation
			JOINT LeftLeg
			{
				OFFSET 0.000000 -0.000004 20.557098
				CHANNELS 3 Xrotation Yrotation Zrotation
				JOINT LeftLegRoll
				{
					OFFSET 0.000000 -0.000004 20.815086
					CHANNELS 3 Xrotation Yrotation Zrotation
					JOINT LeftFoot
					{
						OFFSET 0.000000 -0.000004 16.975693
						CHANNELS 3 Xrotation Yrotation Zrotation
						JOINT LeftToeBase
						{
							OFFSET 0.000000 0.000000 14.350204
							CHANNELS 3 Xrotation Yrotation Zrotation
							End Site
							{
								OFFSET -0.027260 0.801056 6.949707
							}
						}
					}
				}
			}
		}
	}
}
MOTION
Frames: 13
Frame Time: 0.041667
51.084904 -9.296928 57.477089 -11.195918 0.101322 1.289915 -0.344676 0.202664 -1.430351 3.319283 0.385639 -2.866105 4.963513 0.351194 -2.870691 14.164306 9.973353 4.294647 1.489087 -8.121473 4.277482 40.193628 -70.985384 41.993980 98.878470 -70.928120 82.087802 -0.000000 0.000000 -0.000005 56.135911 -11.565950 5.693343 0.000002 0.000008 -2.999999 -4.999649 -7.998716 -0.000019 -32.934424 66.832233 38.249910 107.439033 66.741378 -87.069899 -0.000003 -0.000006 0.000006 54.954961 15.045138 -4.887270 0.000016 -0.000012 3.000001 -4.999610 7.998741 0.000052 -66.882565 -173.477092 3.568952 179.999991 0.000004 -1.025998 108.040909 -1.065585 -2.994838 -0.000004 -0.000005 1.124140 66.244536 6.830304 2.464528 25.457216 -7.346718 0.000048 -67.733722 167.859986 -1.026890 -0.000005 0.000012 -1.070420 -74.287057 -0.889974 1.147757 -0.000004 0.000001 -1.403540 64.308867 -7.108532 -1.924837 25.460088 7.355624 -0.004673 
51.090405 -9.281937 57.480091 -11.191516 0.099272 1.292091 -0.345940 0.202604 -1.430447 3.317276 0.386068 -2.866377 4.961504 0.351630 -2.870956 14.172667 9.971631 4.295135 1.489954 -8.125701 4.279343 40.182228 -70.989223 41.980924 98.888216 -70.927089 82.095035 0.000002 -0.000002 -0.000001 56.136860 -11.565907 5.692862 0.000004 0.000008 -3.000002 -4.999652 -7.998721 -0.000019 -32.943362 66.829337 38.260264 107.438630 66.733182 -87.067748 -0.000002 -0.000004 0.000008 54.946399 15.048724 -4.888777 0.000017 -0.000014 3.000001 -4.999611 7.998737 0.000050 -66.887107 -173.474511 3.567010 179.999991 0.000004 -1.025999 108.040670 -1.064328 -2.994027 -0.000005 -0.000005 1.124249 66.243901 6.830301 2.464368 25.457216 -7.346716 0.000049 -67.739542 167.865778 -1.023994 -0.000004 0.000010 -1.070420 -74.286176 -0.890405 1.146884 -0.000004 0.000001 -1.403542 64.308553 -7.108517 -1.924956 25.460087 7.355623 -0.004672 
51.087898 -9.283710 57.482887 -11.187116 0.097223 1.294228 -0.347210 0.202515 -1.430602 3.315295 0.386442 -2.866785 4.959524 0.352008 -2.871345 14.180244 9.970625 4.295913 1.491544 -8.130692 4.281487 40.171174 -70.992727 41.968326 98.898448 -70.925825 82.102890 0.000000 -0.000002 -0.000001 56.137625 -11.565990 5.692423 0.000004 0.000005 -2.999999 -4.999650 -7.998718 -0.000019 -32.953829 66.826093 38.272378 107.438199 66.724364 -87.065350 -0.000003 -0.000004 0.000006 54.937582 15.052526 -4.890379 0.000016 -0.000014 3.000001 -4.999613 7.998741 0.000049 -66.891745 -173.471956 3.564657 179.999991 0.000004 -1.025998 108.040547 -1.063077 -2.993230 -0.000004 -0.000005 1.124349 66.243184 6.830322 2.464117 25.457215 -7.346715 0.000049 -67.745641 167.871242 -1.020135 -0.000004 0.000011 -1.070420 -74.285301 -0.890847 1.145982 -0.000004 0.000001 -1.403540 64.308342 -7.108526 -1.924873 25.460087 7.355625 -0.004673 
51.089806 -9.290108 57.472092 -11.182614 0.095175 1.296355 -0.348484 0.202405 -1.430789 3.313326 0.386779 -2.867272 4.957563 0.352348 -2.871824 14.187239 9.970227 4.296876 1.493649 -8.136213 4.283817 40.160204 -70.995951 41.955861 98.909192 -70.924425 82.111421 0.000000 -0.000003 -0.000001 56.138284 -11.566039 5.691880 0.000003 0.000006 -3.000001 -4.999652 -7.998721 -0.000020 -32.965375 66.822582 38.285727 107.437728 66.715239 -87.062639 -0.000003 -0.000005 0.000007 54.928484 15.056430 -4.892004 0.000017 -0.000012 2.999999 -4.999609 7.998739 0.000049 -66.896300 -173.469361 3.562212 179.999991 0.000005 -1.025998 108.040438 -1.061516 -2.992482 -0.000004 -0.000005 1.124460 66.242556 6.830317 2.463953 25.457216 -7.346716 0.000047 -67.751638 167.877116 -1.017116 -0.000004 0.000012 -1.070420 -74.284318 -0.891303 1.145062 -0.000004 0.000001 -1.403530 64.308034 -7.108512 -1.924887 25.460088 7.355625 -0.004673 
51.090603 -9.292271 57.470886 -11.178119 0.093128 1.298473 -0.349760 0.202284 -1.431005 3.311376 0.387093 -2.867817 4.955604 0.352666 -2.872349 14.193941 9.970131 4.297958 1.496044 -8.142022 4.286256 40.149235 -70.999168 41.943475 98.920161 -70.922922 82.120170 0.000000 -0.000001 -0.000001 56.138858 -11.566175 5.691299 0.000003 0.000005 -3.000002 -4.999652 -7.998718 -0.000020 -32.977704 66.819010 38.299985 107.437305 66.705888 -87.059927 -0.000004 -0.000004 0.000005 54.919287 15.060369 -4.893705 0.000016 -0.000011 3.000002 -4.999612 7.998740 0.000050 -66.900740 -173.467175 3.560592 179.999991 0.000004 -1.025998 108.040301 -1.060266 -2.991671 -0.000004 -0.000005 1.124570 66.241818 6.830300 2.463797 25.457216 -7.346715 0.000047 -67.757826 167.882621 -1.013139 -0.000004 0.000012 -1.070420 -74.283444 -0.891757 1.144130 -0.000004 0.000001 -1.403531 64.307822 -7.108522 -1.924904 25.460088 7.355625 -0.004674 
51.091503 -9.285744 57.474487 -11.173615 0.091082 1.300581 -0.351031 0.202159 -1.431211 3.309426 0.387401 -2.868361 4.953654 0.352978 -2.872894 14.200442 9.970047 4.299094 1.498512 -8.147921 4.288729 40.138341 -71.002255 41.931136 98.931472 -70.921501 82.129282 0.000000 0.000000 -0.000004 56.139428 -11.566314 5.690725 0.000004 0.000007 -3.000001 -4.999653 -7.998722 -0.000019 -32.990107 66.815287 38.314308 107.436915 66.696531 -87.057229 -0.000001 -0.000006 0.000006 54.910107 15.064368 -4.895491 0.000017 -0.000012 3.000000 -4.999608 7.998741 0.000050 -66.905275 -173.464607 3.557962 179.999991 0.000004 -1.025998 108.040294 -1.058712 -2.989922 -0.000005 -0.000005 1.124679 66.241196 6.830295 2.463533 25.457215 -7.346715 0.000048 -67.763919 167.888550 -1.010090 -0.000003 0.000012 -1.070420 -74.282569 -0.892213 1.143191 -0.000004 0.000001 -1.403520 64.307515 -7.108554 -1.924832 25.460088 7.355625 -0.004674 
51.087505 -9.279198 57.478287 -11.169213 0.089036 1.302700 -0.352306 0.202040 -1.431417 3.307467 0.387720 -2.868896 4.951704 0.353300 -2.873409 14.207143 9.969854 4.300160 1.500825 -8.153661 4.291146 40.127187 -71.005404 41.918531 98.942154 -70.919999 82.137744 -0.000002 -0.000002 -0.000001 56.140098 -11.566422 5.690263 0.000003 0.000010 -2.999999 -4.999655 -7.998715 -0.000019 -33.002098 66.811681 38.328173 107.436492 66.687187 -87.054511 -0.000003 -0.000006 0.000006 54.900900 15.068311 -4.897086 0.000015 -0.000010 3.000001 -4.999612 7.998737 0.000050 -66.909824 -173.462039 3.555317 179.999991 0.000005 -1.025998 108.040165 -1.057468 -2.990135 -0.000005 -0.000005 1.124790 66.240459 6.830315 2.463385 25.457215 -7.346716 0.000048 -67.770114 167.894041 -1.006115 -0.000004 0.000012 -1.070420 -74.281593 -0.892671 1.142263 -0.000004 0.000001 -1.403509 64.307303 -7.108515 -1.924936 25.460085 7.355620 -0.004671 
51.088703 -9.286282 57.474487 -11.164709 0.086989 1.304829 -0.353577 0.201937 -1.431593 3.305496 0.388068 -2.869363 4.949734 0.353651 -2.873868 14.214331 9.969253 4.301077 1.502789 -8.159030 4.293423 40.116163 -71.008764 41.906008 98.952946 -70.918708 82.146309 -0.000001 -0.000001 -0.000001 56.140754 -11.566468 5.689719 0.000003 0.000005 -3.000001 -4.999651 -7.998720 -0.000020 -33.013545 66.808314 38.341393 107.436096 66.678151 -87.051977 0.000000 -0.000007 0.000006 54.891894 15.072178 -4.898732 0.000015 -0.000014 3.000000 -4.999610 7.998740 0.000048 -66.914380 -173.459457 3.552972 179.999991 0.000004 -1.025999 108.040055 -1.055906 -2.988391 -0.000005 -0.000005 1.124899 66.239735 6.830297 2.463225 25.457215 -7.346715 0.000048 -67.776117 167.899929 -1.003084 -0.000003 0.000012 -1.070420 -74.280718 -0.893119 1.141341 -0.000004 0.000001 -1.403510 64.307098 -7.108521 -1.924851 25.460085 7.355624 -0.004674 
51.088104 -9.288780 57.469299 -11.160314 0.084942 1.306978 -0.354845 0.201856 -1.431730 3.303506 0.388459 -2.869721 4.947744 0.354047 -2.874220 14.222204 9.968038 4.301763 1.504156 -8.163785 4.295481 40.105078 -71.012261 41.893327 98.963178 -70.917438 82.154164 0.000000 0.000001 -0.000002 56.141618 -11.566525 5.689201 0.000005 0.000006 -3.000003 -4.999652 -7.998717 -0.000017 -33.023551 66.805165 38.352974 107.435590 66.669552 -87.049586 -0.000001 -0.000006 0.000007 54.883155 15.075887 -4.900373 0.000015 -0.000014 2.999999 -4.999608 7.998737 0.000048 -66.918922 -173.456889 3.550826 179.999991 0.000005 -1.025999 108.039919 -1.054655 -2.987580 -0.000005 -0.000005 1.125010 66.239106 6.830291 2.463065 25.457213 -7.346718 0.000048 -67.782026 167.905748 -1.000174 -0.000003 0.000013 -1.070420 -74.279837 -0.893556 1.140458 -0.000004 0.000001 -1.403508 64.306791 -7.108553 -1.924877 25.460085 7.355626 -0.004672 
51.085705 -9.287685 57.470795 -11.155814 0.082893 1.309167 -0.356110 0.201809 -1.431815 3.301486 0.388910 -2.869944 4.945725 0.354504 -2.874436 14.230958 9.966008 4.302118 1.504728 -8.167722 4.297234 40.093576 -71.016229 41.880138 98.972610 -70.916420 82.160974 0.000000 0.000000 -0.000002 56.142570 -11.566485 5.688818 0.000005 0.000008 -3.000000 -4.999654 -7.998714 -0.000019 -33.031696 66.802337 38.362430 107.435119 66.661581 -87.047325 -0.000001 -0.000006 0.000006 54.874710 15.079494 -4.901888 0.000016 -0.000013 2.999999 -4.999609 7.998743 0.000050 -66.923464 -173.454321 3.548980 179.999991 0.000005 -1.025998 108.039693 -1.053397 -2.986784 -0.000005 -0.000005 1.125119 66.238478 6.830288 2.462802 25.457216 -7.346716 0.000048 -67.788029 167.911158 -0.996241 -0.000003 0.000011 -1.070420 -74.278956 -0.893986 1.139585 -0.000004 0.000001 -1.403500 64.306573 -7.108514 -1.924883 25.460087 7.355627 -0.004673 
51.090603 -9.285786 57.473488 -11.151510 0.080844 1.311386 -0.357370 0.201802 -1.431831 3.299426 0.389438 -2.869980 4.943664 0.355040 -2.874470 14.240979 9.962857 4.302072 1.504282 -8.170591 4.298596 40.082361 -71.020635 41.867093 98.981326 -70.915634 82.167012 -0.000002 -0.000002 -0.000002 56.143718 -11.566395 5.688372 0.000004 0.000007 -3.000001 -4.999652 -7.998716 -0.000017 -33.037987 66.800049 38.369735 107.434805 66.654334 -87.045741 -0.000002 -0.000005 0.000006 54.866708 15.082813 -4.903258 0.000015 -0.000013 2.999999 -4.999611 7.998739 0.000050 -66.928129 -173.451356 3.546710 179.999991 0.000004 -1.025998 108.039461 -1.052142 -2.985974 -0.000004 -0.000005 1.125219 66.237850 6.830284 2.462640 25.457216 -7.346716 0.000048 -67.793664 167.916854 -0.993403 -0.000004 0.000012 -1.070420 -74.277979 -0.894404 1.138750 -0.000004 0.000001 -1.403499 64.306258 -7.108504 -1.924903 25.460087 7.355625 -0.004672 
51.087505 -9.285084 57.475792 -11.147111 0.078793 1.313656 -0.358626 0.201846 -1.431757 3.297326 0.390061 -2.869801 4.941565 0.355671 -2.874292 14.252364 9.958382 4.301548 1.502600 -8.172190 4.299490 40.070486 -71.025587 41.853220 98.988695 -70.915129 82.171410 0.000000 -0.000001 -0.000004 56.145135 -11.566157 5.688003 0.000005 0.000006 -3.000000 -4.999649 -7.998718 -0.000021 -33.041556 66.798308 38.373884 107.434313 66.648057 -87.044259 -0.000001 -0.000006 0.000009 54.859263 15.085859 -4.904495 0.000017 -0.000015 3.000000 -4.999609 7.998737 0.000050 -66.932876 -173.448419 3.544928 179.999991 0.000004 -1.025999 108.039140 -1.050880 -2.984184 -0.000004 -0.000005 1.125330 66.237228 6.830317 2.462387 25.457216 -7.346716 0.000047 -67.799299 167.922537 -0.990652 -0.000003 0.000011 -1.070420 -74.277098 -0.894799 1.137962 -0.000004 0.000001 -1.403501 64.305958 -7.108536 -1.924828 25.460088 7.355623 -0.004674 
51.091305 -9.283787 57.477180 -11.142909 0.076740 1.315975 -0.359871 0.201949 -1.431581 3.295168 0.390793 -2.869369 4.939406 0.356413 -2.873852 14.265610 9.952371 4.300406 1.499472 -8.172269 4.299825 40.058578 -71.031160 41.839119 98.995068 -70.914985 82.174648 0.000001 -0.000002 -0.000001 56.146945 -11.565814 5.687805 0.000004 0.000004 -3.000000 -4.999654 -7.998719 -0.000019 -33.041832 66.797324 38.374322 107.433767 66.642846 -87.043255 -0.000003 -0.000005 0.000006 54.852358 15.088590 -4.905610 0.000017 -0.000013 3.000002 -4.999609 7.998741 0.000050 -66.937534 -173.445455 3.543858 179.999991 0.000005 -1.025999 108.038785 -1.049930 -2.984337 -0.000004 -0.000005 1.125440 66.236600 6.830313 2.462226 25.457215 -7.346716 0.000048 -67.804674 167.928083 -0.987960 -0.000004 0.000011 -1.070420 -74.276224 -0.895171 1.137230 -0.000004 0.000001 -1.403510 64.305637 -7.108524 -1.924847 25.460090 7.355626 -0.004673 
